<?xml version="1.0" encoding="UTF-8" standalone="no"?>
<!DOCTYPE svg PUBLIC "-//W3C//DTD SVG 20010904//EN"
              "http://www.w3.org/TR/2001/REC-SVG-20010904/DTD/svg10.dtd">

<svg xmlns="http://www.w3.org/2000/svg"
     width="150.794mm" height="158.73mm"
     viewBox="0 0 570 600">
  <path id="Selection"
        fill="none" stroke="black" stroke-width="1"
        d="M 0.00,0.00
           C 0.00,0.00 0.00,600.00 0.00,600.00
             0.00,600.00 570.00,600.00 570.00,600.00
             570.00,600.00 570.00,0.00 570.00,0.00
             570.00,0.00 0.00,0.00 0.00,0.00 Z
           M 363.00,195.00
           C 369.09,193.34 377.67,189.28 381.30,183.98
             385.35,178.09 386.52,167.06 387.08,160.00
             387.08,160.00 389.00,117.00 389.00,117.00
             388.99,109.98 385.90,94.19 387.89,89.00
             391.16,80.49 399.50,79.61 403.69,88.00
             405.43,91.51 406.54,104.40 407.02,109.00
             409.11,127.45 407.02,122.61 407.02,137.00
             406.98,149.28 406.88,158.76 404.75,171.00
             402.36,184.75 397.78,195.64 386.00,203.96
             382.19,206.65 377.30,209.28 373.00,211.13
             370.43,212.23 366.38,213.29 364.60,215.42
             362.98,217.34 363.05,219.64 363.00,222.00
             363.00,222.00 363.00,246.00 363.00,246.00
             363.22,257.79 372.05,255.62 381.00,263.21
             391.27,271.93 395.44,280.71 399.95,293.00
             407.62,313.93 409.97,335.99 412.17,358.00
             414.42,380.55 415.96,403.32 416.00,426.00
             416.00,426.00 417.00,443.00 417.00,443.00
             417.00,443.00 416.17,469.00 416.17,469.00
             415.64,474.56 416.21,481.77 413.43,486.89
             409.82,493.56 401.36,490.70 398.14,484.98
             394.83,479.14 395.03,463.01 395.00,456.00
             395.00,456.00 394.00,440.00 394.00,440.00
             394.00,440.00 394.00,403.00 394.00,403.00
             394.00,403.00 393.04,391.00 393.04,391.00
             393.04,391.00 393.04,378.00 393.04,378.00
             393.04,378.00 389.07,336.00 389.07,336.00
             386.87,312.19 383.87,288.94 363.00,274.00
             363.00,274.00 363.00,433.00 363.00,433.00
             363.00,433.00 364.00,450.00 364.00,450.00
             364.00,450.00 364.00,475.00 364.00,475.00
             364.00,475.00 364.91,487.00 364.91,487.00
             364.91,487.00 366.82,513.00 366.82,513.00
             367.24,519.03 365.06,528.68 358.00,529.76
             355.14,530.19 352.39,529.42 350.19,527.57
             343.32,521.81 345.57,513.70 344.83,506.00
             344.83,506.00 344.00,497.00 344.00,497.00
             344.00,497.00 343.00,462.00 343.00,462.00
             343.00,462.00 342.00,447.00 342.00,447.00
             342.00,447.00 342.00,401.00 342.00,401.00
             342.00,401.00 343.00,384.00 343.00,384.00
             343.00,384.00 343.00,334.00 343.00,334.00
             343.00,334.00 344.00,318.00 344.00,318.00
             344.00,318.00 344.00,300.00 344.00,300.00
             344.00,300.00 343.04,288.00 343.04,288.00
             343.04,288.00 343.04,275.00 343.04,275.00
             328.00,290.34 324.44,306.84 319.12,327.00
             312.69,351.34 310.63,374.04 308.91,399.00
             308.91,399.00 307.00,426.00 307.00,426.00
             307.00,426.00 307.00,464.00 307.00,464.00
             306.99,469.74 306.77,476.30 302.61,480.78
             298.49,485.21 291.65,486.10 288.65,479.95
             285.56,473.60 284.99,449.89 285.00,442.00
             285.00,442.00 287.00,408.00 287.00,408.00
             287.00,408.00 288.04,396.00 288.04,396.00
             288.04,396.00 288.04,386.00 288.04,386.00
             288.04,386.00 292.42,354.00 292.42,354.00
             296.38,328.50 301.90,302.87 314.31,280.00
             316.98,275.07 320.59,269.07 325.04,265.61
             329.34,262.26 340.55,257.54 342.40,252.91
             343.06,251.27 342.99,248.77 343.00,247.00
             343.00,247.00 343.00,215.00 343.00,215.00
             336.71,214.86 331.78,213.60 326.00,211.13
             319.63,208.40 310.95,203.22 306.47,197.96
             299.71,190.04 296.16,178.25 295.04,168.00
             295.04,168.00 295.04,159.00 295.04,159.00
             295.04,159.00 294.00,147.00 294.00,147.00
             294.00,147.00 294.00,109.00 294.00,109.00
             294.09,102.08 295.64,95.51 300.52,90.30
             306.69,83.70 312.23,87.03 313.86,95.00
             314.05,97.09 314.00,99.84 313.86,102.00
             313.86,102.00 313.86,120.00 313.86,120.00
             313.86,120.00 313.04,128.00 313.04,128.00
             313.04,128.00 313.91,139.00 313.91,139.00
             314.81,152.10 314.15,155.59 318.00,169.00
             319.65,174.74 322.75,185.68 327.21,189.57
             330.31,192.27 338.83,194.16 343.00,195.00
             343.00,195.00 344.00,180.00 344.00,180.00
             344.00,180.00 344.00,123.00 344.00,123.00
             344.00,123.00 345.00,101.00 345.00,101.00
             345.00,101.00 344.00,88.00 344.00,88.00
             343.92,80.61 344.20,74.34 345.18,67.00
             345.78,62.49 347.98,55.60 353.04,54.47
             357.31,53.52 360.15,56.27 361.52,60.02
             362.69,63.21 363.95,79.99 364.00,84.00
             364.00,84.00 365.00,118.00 365.00,118.00
             365.00,118.00 364.00,134.00 364.00,134.00
             364.00,134.00 364.00,149.00 364.00,149.00
             364.00,149.00 363.00,164.00 363.00,164.00
             363.00,164.00 363.00,195.00 363.00,195.00 Z
           M 211.00,212.00
           C 211.00,212.00 211.00,256.00 211.00,256.00
             216.08,256.95 218.47,258.45 223.00,260.76
             245.08,271.98 248.34,286.51 252.80,309.00
             256.82,329.26 258.76,358.23 259.00,379.00
             259.00,379.00 260.00,392.00 260.00,392.00
             260.00,392.00 260.68,455.00 260.68,455.00
             260.92,458.31 260.30,459.85 260.09,463.00
             259.60,470.08 259.82,484.65 253.66,489.26
             249.71,492.22 245.18,489.62 242.85,485.96
             240.17,481.73 240.06,471.10 240.00,466.00
             240.00,466.00 239.00,451.00 239.00,451.00
             239.00,451.00 239.00,413.00 239.00,413.00
             239.00,413.00 238.00,396.00 238.00,396.00
             238.00,396.00 238.00,372.00 238.00,372.00
             238.00,372.00 234.28,327.00 234.28,327.00
             232.98,316.41 230.73,294.29 224.44,286.01
             220.98,281.45 215.96,278.65 211.00,276.00
             211.00,276.00 211.00,281.00 211.00,281.00
             211.00,281.00 210.00,296.00 210.00,296.00
             210.00,296.00 210.00,436.00 210.00,436.00
             210.00,436.00 211.00,453.00 211.00,453.00
             211.00,453.00 211.00,476.00 211.00,476.00
             211.00,476.00 213.00,506.00 213.00,506.00
             213.00,506.00 213.00,517.00 213.00,517.00
             212.99,522.84 212.62,527.94 209.03,532.89
             205.25,538.12 198.89,538.17 195.13,532.89
             191.10,527.23 192.43,522.28 191.83,516.00
             191.83,516.00 191.00,505.00 191.00,505.00
             191.00,505.00 190.00,489.00 190.00,489.00
             190.00,489.00 190.00,479.00 190.00,479.00
             190.00,479.00 189.00,467.00 189.00,467.00
             189.00,467.00 189.00,448.00 189.00,448.00
             189.00,448.00 188.04,436.00 188.04,436.00
             188.04,436.00 188.04,421.00 188.04,421.00
             188.04,421.00 189.00,404.00 189.00,404.00
             189.00,404.00 189.00,371.00 189.00,371.00
             189.00,371.00 190.00,354.00 190.00,354.00
             190.00,354.00 190.00,332.00 190.00,332.00
             190.00,332.00 191.00,316.00 191.00,316.00
             191.00,316.00 191.00,296.00 191.00,296.00
             191.00,296.00 190.00,276.00 190.00,276.00
             184.59,281.41 179.42,286.33 175.47,293.00
             171.75,299.30 167.93,312.66 165.86,320.00
             158.96,344.46 156.65,369.77 154.91,395.00
             154.91,395.00 153.00,416.00 153.00,416.00
             153.00,416.00 153.00,425.00 153.00,425.00
             153.00,425.00 152.00,436.00 152.00,436.00
             152.00,436.00 152.00,448.00 152.00,448.00
             152.05,458.81 154.60,465.33 151.48,477.00
             149.10,485.91 141.04,488.39 136.70,482.85
             133.29,478.51 132.07,461.86 132.00,456.00
             132.00,456.00 133.00,424.00 133.00,424.00
             133.00,424.00 134.00,409.00 134.00,409.00
             134.03,391.57 136.01,374.28 138.28,357.00
             141.21,334.74 145.41,305.88 155.89,286.00
             159.80,278.58 164.04,271.62 171.00,266.63
             175.20,263.63 186.68,259.30 188.98,255.62
             190.22,253.63 190.00,250.31 190.00,248.00
             190.00,248.00 190.00,213.00 190.00,213.00
             183.94,212.50 178.56,211.19 173.00,208.69
             166.60,205.80 160.01,201.97 155.04,196.96
             144.58,186.42 142.87,173.98 141.91,160.00
             141.91,160.00 141.04,153.00 141.04,153.00
             141.04,153.00 141.04,134.00 141.04,134.00
             141.00,122.06 138.80,101.55 150.17,93.89
             159.72,87.46 160.99,103.49 161.00,109.00
             161.03,130.70 159.20,146.82 165.29,168.00
             167.17,174.53 169.52,183.24 175.04,187.57
             178.52,190.30 186.56,192.10 191.00,193.00
             191.00,193.00 191.00,122.00 191.00,122.00
             191.00,122.00 191.96,109.00 191.96,109.00
             191.96,109.00 191.00,95.00 191.00,95.00
             191.00,95.00 191.00,80.00 191.00,80.00
             191.01,74.72 191.58,64.35 194.70,60.10
             197.12,56.82 201.12,54.35 204.79,57.36
             211.07,62.49 210.48,72.79 211.17,80.00
             211.17,80.00 212.00,89.00 212.00,89.00
             212.00,89.00 212.00,118.00 212.00,118.00
             212.00,118.00 211.00,134.00 211.00,134.00
             211.00,134.00 211.00,150.00 211.00,150.00
             211.00,150.00 210.00,166.00 210.00,166.00
             210.00,166.00 210.00,183.00 210.00,183.00
             210.00,185.20 209.67,189.73 211.60,191.19
             216.04,194.56 225.70,184.33 227.64,181.00
             232.49,172.65 235.98,147.99 236.00,138.00
             236.00,138.00 236.00,122.00 236.00,122.00
             235.99,115.69 233.20,99.44 234.89,95.00
             236.36,91.15 240.48,86.75 244.98,88.11
             248.55,89.19 250.75,92.57 251.62,96.00
             251.62,96.00 255.00,126.00 255.00,126.00
             255.00,126.00 254.04,143.00 254.04,143.00
             252.97,167.52 249.78,197.05 224.00,208.13
             219.84,209.92 215.48,211.31 211.00,212.00 Z" />
</svg>
